# xmcd CD database file generated by LOLA_Freedb v0.9beta0
# 
# Track frame offsets:
#      150
#      11990
#      24566
#      34530
#      45812
#      60964
#      71606
#      87329
#      99819
#      110594
#      125877
# 
# Disc length: 1855 seconds
# 
# Revision: 0 
# Processed by: cddbd v1.5.1PL2 Copyright (c) Steve Scherf et al.
# Submitted via: LOLA_Freedb v0.9beta0
# 
DISCID=84073d0b
DTITLE=The Bluegrass Cardinals - Cardinal Class
DYEAR=1983
DGENRE=
TTITLE0=The Bluegrass Cardinals - Pulleybone Gayden
TTITLE1=The Bluegrass Cardinals - Warm Kentucky sunshine
TTITLE2=The Bluegrass Cardinals - Rolling away
TTITLE3=The Bluegrass Cardinals - Is your heart right with God
TTITLE4=The Bluegrass Cardinals - Country poor and country proud
TTITLE5=The Bluegrass Cardinals - Way out there
TTITLE6=The Bluegrass Cardinals - Thistles and roses
TTITLE7=The Bluegrass Cardinals - Up and down the mountain
TTITLE8=The Bluegrass Cardinals - That home above
TTITLE9=The Bluegrass Cardinals - I've heard the wind blow
TTITLE10=The Bluegrass Cardinals - Gravel in your shoe
EXTD=LP Sugar Hill SH3731
EXTT0=
EXTT1=
EXTT2=
EXTT3=
EXTT4=
EXTT5=
EXTT6=
EXTT7=
EXTT8=
EXTT9=
EXTT10=
PLAYORDER=
